<svg width="1080" height="1080" viewBox="0 0 1080 1080" fill="none" xmlns="http://www.w3.org/2000/svg">
<g id="hd-logo-frame">
<g id="hd-logo-minimal">
<path id="hd-logo-min-m" d="M937.95 569.4H711.45H569.4V1080H639.18H783.72H865.68H1010.22H1080V569.4H937.95Z" fill="#F2F2F2"/>
<path id="hd-logo-min-a2" d="M0 569.4V1080H510.6C510.6 798.01 282 569.4 0 569.4Z" fill="#F2F2F2"/>
<path id="hd-logo-min-a1" d="M569.4 0V510.6H1080C1080 228.61 851.4 0 569.4 0Z" fill="#F2F2F2"/>
<path id="hd-logo-min-v" d="M142.05 0H0V510.6C282 510.6 510.6 282 510.6 0H368.55H142.05Z" fill="#F2F2F2"/>
</g>
<path id="hd-logo-umbrella" d="M1080 510.6V569.4H569.4V1080H510.6C510.6 1009.51 496.31 942.34 470.47 881.25C392.97 698 211.49 569.41 0 569.41V510.61C70.5 510.61 137.66 496.32 198.75 470.48C382.01 392.97 510.6 211.49 510.6 0H569.39V510.6H1080Z" fill="#F2F2F2"/>
<g id="hd-logo">
<path id="hd-logo-m" d="M937.95 569.4H898.56C898.56 692.48 798.79 792.25 675.71 792.25V569.4H569.4V1080H630.31C630.31 1000.49 694.77 936.04 774.27 936.04V1080H783.72H865.67H872.24C872.24 1000.49 936.7 936.04 1016.2 936.04V1080H1080V569.4H937.95Z" fill="#F2F2F2"/>
<path id="hd-logo-a2" d="M0 569.4V1080H510.6C510.6 798.01 282 569.4 0 569.4ZM329.16 973.69H267.16H168.31H106.31V750.84C229.39 750.84 329.16 850.61 329.16 973.69Z" fill="#F2F2F2"/>
<path id="hd-logo-a1" d="M569.4 0V510.6H1080C1080 228.61 851.4 0 569.4 0ZM898.56 404.29H836.56H737.71H675.71V181.44C798.79 181.44 898.56 281.22 898.56 404.29Z" fill="#F2F2F2"/>
<path id="hd-logo-v" d="M368.55 0H329.16C329.16 123.08 229.39 222.85 106.31 222.85V0H0V510.6C282 510.61 510.6 282 510.6 0H368.55Z" fill="#F2F2F2"/>
</g>
</g>
</svg>
