<svg width="35" height="35" viewBox="0 0 35 35" fill="none" xmlns="http://www.w3.org/2000/svg">
<g clip-path="url(#clip0_422_7)">
<rect width="35" height="35" rx="5" fill="#F2F2F2"/>
<path d="M9.49378 26.5091V26.7591H9.74378H11.4705H11.7205V26.5091V14.3971V14.1471H11.4705H9.74378H9.49378V14.3971V26.5091ZM16.7981 26.7591H17.0481V26.5091V20.1778C17.0481 18.854 17.3882 17.7844 18.0004 17.0503C18.6078 16.3221 19.5039 15.8983 20.6769 15.8983C21.6391 15.8983 22.3801 16.1385 22.8849 16.6738C23.3928 17.2124 23.7052 18.0954 23.7052 19.4771V26.5091V26.7591H23.9552H25.6819H25.9319V26.5091V19.1018C25.9319 17.5427 25.5811 16.2166 24.7665 15.278C23.9463 14.3329 22.6921 13.8218 20.9772 13.8218C19.389 13.8218 17.9069 14.5105 16.987 15.7616L16.8211 14.3675L16.7948 14.1471H16.5728H15.0713H14.8213V14.3971V26.5091V26.7591H15.0713H16.7981ZM9.06836 9.79251C9.06836 10.6313 9.75586 11.3188 10.5946 11.3188C11.4271 11.3188 12.1459 10.6375 12.1459 9.79251C12.1459 8.95374 11.4334 8.24121 10.5946 8.24121C9.74962 8.24121 9.06836 8.96006 9.06836 9.79251Z" fill="black" stroke="black" stroke-width="0.5"/>
</g>
<defs>
<clipPath id="clip0_422_7">
<rect width="35" height="35" fill="white"/>
</clipPath>
</defs>
</svg>
