<svg width="35" height="35" viewBox="0 0 35 35" fill="none" xmlns="http://www.w3.org/2000/svg">
<g clip-path="url(#clip0_423_26)">
<rect width="35" height="35" rx="5" fill="#F2F2F2"/>
<g clip-path="url(#clip1_423_26)">
<path d="M26.4966 13.7698L36.8051 1.30093C36.3483 0.77055 35.7626 0.330236 35.0949 0L24.9503 12.2588L23.5914 13.8999L19.5617 18.7734C19.0814 19.3538 18.3317 19.6941 17.5 19.6941C16.6683 19.6941 15.9186 19.3538 15.4383 18.7734L11.4086 13.8999L10.0614 12.2688L-0.0831429 0C-0.762571 0.330236 -1.33657 0.77055 -1.79343 1.30093L8.51514 13.7698L-3 25.0379V28L9.874 15.411L13.5874 19.9042C14.4777 20.985 15.942 21.6355 17.5 21.6355C19.058 21.6355 20.534 20.985 21.4243 19.9042L25.1377 15.411L38 28V25.0279L26.4966 13.7698Z" fill="#0C0C0C"/>
</g>
</g>
<defs>
<clipPath id="clip0_423_26">
<rect width="35" height="35" fill="white"/>
</clipPath>
<clipPath id="clip1_423_26">
<rect width="41" height="28" fill="white" transform="translate(-3)"/>
</clipPath>
</defs>
</svg>
