<svg width="255" height="70" viewBox="0 0 255 70" fill="none" xmlns="http://www.w3.org/2000/svg">
<g clip-path="url(#clip0_428_56)">
<path d="M224.399 14.7153C223.254 14.7153 222.191 14.9718 221.25 15.5137C218.308 17.212 217.189 21.3507 217.782 26.5036C213.024 28.5662 210 31.6034 210 34.9996C210 38.3959 213.024 41.433 217.782 43.4957C217.189 48.6483 218.308 52.7873 221.25 54.4856C222.189 55.0275 223.252 55.2839 224.399 55.2839C226.842 55.2839 229.665 54.0581 232.5 51.9551C235.335 54.0581 238.162 55.2839 240.604 55.2839C241.75 55.2839 242.812 55.0275 243.753 54.4856C246.695 52.7873 247.815 48.6485 247.221 43.4957C251.978 41.4331 255 38.3951 255 34.9996C255 31.6034 251.976 28.5662 247.218 26.5036C247.811 21.3509 246.691 17.212 243.75 15.5137C242.81 14.9699 241.748 14.7153 240.6 14.7153C238.158 14.7153 235.335 15.9411 232.5 18.0442C229.664 15.9411 226.841 14.7153 224.399 14.7153ZM224.399 17.9966C225.865 17.9966 227.803 18.7758 229.907 20.2195C228.67 21.387 227.458 22.7146 226.293 24.1928C224.402 24.4639 222.619 24.8591 220.968 25.3537C220.959 25.2392 220.938 25.119 220.931 25.0058C220.731 21.6683 221.464 19.1804 222.891 18.3554C223.312 18.1117 223.805 17.9966 224.399 17.9966ZM240.6 17.9966C241.193 17.9966 241.687 18.1117 242.109 18.3554C243.536 19.1786 244.269 21.6683 244.068 25.0058C244.062 25.119 244.041 25.2392 244.032 25.3537C242.379 24.8588 240.595 24.4639 238.703 24.1928C237.538 22.7148 236.33 21.3868 235.093 20.2195C237.197 18.7761 239.136 17.9966 240.6 17.9966ZM232.5 22.3032C233.008 22.7658 233.513 23.2548 234.023 23.79C233.517 23.773 233.014 23.7497 232.5 23.7497C231.987 23.7497 231.485 23.7731 230.98 23.79C231.49 23.2553 231.992 22.7654 232.5 22.3032ZM232.5 27.0309C234.054 27.0309 235.526 27.1178 236.924 27.269C237.776 28.4272 238.616 29.6518 239.403 31.0153C240.157 32.3222 240.825 33.6599 241.413 34.9996C240.825 36.3401 240.158 37.6799 239.403 38.9877C238.618 40.3472 237.78 41.5639 236.931 42.7193C235.484 42.8776 234 42.9683 232.5 42.9683C230.946 42.9683 229.473 42.8815 228.076 42.7303C227.224 41.572 226.384 40.3511 225.597 38.9877C224.842 37.6799 224.175 36.3401 223.586 34.9996C224.175 33.6599 224.842 32.3222 225.597 31.0153C226.382 29.6557 227.219 28.4354 228.069 27.28C229.515 27.1217 230.999 27.0309 232.5 27.0309ZM241.399 28.0453C242.143 28.2249 242.858 28.4188 243.53 28.6349C243.378 29.3231 243.191 30.0246 242.981 30.7333C242.739 30.2806 242.506 29.8264 242.245 29.3747C241.976 28.91 241.678 28.4926 241.399 28.0453ZM223.597 28.049C223.319 28.4949 223.023 28.9115 222.755 29.3747C222.494 29.8264 222.26 30.2805 222.019 30.7333C221.808 30.0231 221.618 29.3208 221.466 28.6313C222.151 28.415 222.864 28.2234 223.597 28.049ZM218.379 29.8361C218.774 31.5041 219.322 33.2332 220.027 34.996C219.323 36.7545 218.778 38.4805 218.383 40.1449C215.117 38.5681 213.281 36.6053 213.281 34.9996C213.281 33.3515 215.066 31.4733 218.057 29.9789C218.159 29.9278 218.275 29.886 218.379 29.8361ZM246.617 29.8544C249.882 31.4312 251.719 33.3939 251.719 34.9996C251.719 36.6478 249.934 38.526 246.943 40.0204C246.841 40.0714 246.725 40.1133 246.621 40.1632C246.226 38.4942 245.682 36.7634 244.977 34.9996C245.679 33.2426 246.222 31.5174 246.617 29.8544ZM232.5 31.2497C230.428 31.2497 228.75 32.9278 228.75 34.9996C228.75 37.0715 230.428 38.7496 232.5 38.7496C234.572 38.7496 236.25 37.0715 236.25 34.9996C236.25 32.9278 234.572 31.2497 232.5 31.2497ZM222.019 39.266C222.26 39.7189 222.498 40.1727 222.759 40.6246C223.027 41.0889 223.322 41.507 223.601 41.9539C222.857 41.7743 222.142 41.5805 221.47 41.3643C221.622 40.6757 221.808 39.9752 222.019 39.266ZM242.981 39.2696C243.192 39.9792 243.381 40.6791 243.534 41.368C242.849 41.5843 242.136 41.7759 241.402 41.9503C241.681 41.5044 241.977 41.0877 242.245 40.6246C242.505 40.1738 242.74 39.7215 242.981 39.2696ZM220.968 44.6456C222.62 45.1405 224.404 45.5353 226.296 45.8065C227.462 47.2852 228.669 48.6157 229.907 49.7835C227.803 51.2267 225.865 52.0064 224.399 52.0064C223.807 52.0064 223.312 51.8876 222.891 51.6438C221.464 50.8207 220.731 48.3346 220.931 44.9971C220.938 44.8827 220.959 44.7613 220.968 44.6456ZM244.032 44.6456C244.041 44.7613 244.062 44.8827 244.068 44.9971C244.269 48.3346 243.536 50.8188 242.109 51.6438C241.687 51.8876 241.195 52.0064 240.6 52.0064C239.135 52.0064 237.197 51.2269 235.093 49.7835C236.33 48.6156 237.541 47.2854 238.707 45.8065C240.598 45.5354 242.38 45.1402 244.032 44.6456ZM230.976 46.2093C231.482 46.2263 231.985 46.2496 232.5 46.2496C233.014 46.2496 233.517 46.2263 234.023 46.2093C233.513 46.7445 233.008 47.2335 232.5 47.6961C231.992 47.2335 231.487 46.7445 230.976 46.2093Z" fill="black"/>
</g>
<path d="M15.3686 27.7773H11.7891V35.3271H15.3543C17.9275 35.3271 19.437 33.9853 19.437 31.5798C19.437 29.1069 17.9684 27.7773 15.3686 27.7773Z" fill="black"/>
<path d="M40.9091 12.5H4.09091C1.83068 12.5 0 14.3307 0 16.5909V53.4091C0 55.6693 1.83068 57.5 4.09091 57.5H40.9091C43.1693 57.5 45 55.6693 45 53.4091V16.5909C45 14.3307 43.1693 12.5 40.9091 12.5ZM16.1652 38.3218H11.788V44.9348H8.18182V24.7584H16.3207C20.3482 24.7584 23.1014 27.5136 23.1014 31.582C23.1014 35.5809 20.248 38.3218 16.1652 38.3218ZM31.0786 45.2416C27.2618 45.2416 24.8564 43.5909 24.5905 40.8091H28.0166C28.352 41.9423 29.428 42.6132 31.1625 42.6132C32.9093 42.6132 34.1264 41.8441 34.1264 40.7109C34.1264 39.8436 33.4698 39.2995 32.0155 38.9764L29.3032 38.3464C26.3659 37.6755 24.9832 36.3193 24.9832 34.012C24.9832 31.2425 27.4991 29.328 31.1073 29.328C34.742 29.328 37.0227 30.9357 37.2743 33.7175H34.0159C33.7643 32.6416 32.7436 31.9564 31.1216 31.9564C29.5425 31.9564 28.352 32.7111 28.352 33.8157C28.352 34.683 29.0782 35.2148 30.6164 35.5625L33.3143 36.1782C36.2373 36.8348 37.5934 38.0948 37.5934 40.3448C37.5934 43.2841 34.8955 45.2416 31.0786 45.2416Z" fill="black"/>
<path d="M74.0909 12.5C71.8307 12.5 70 14.3307 70 16.5909V53.4091C70 55.6693 71.8307 57.5 74.0909 57.5H110.909C113.169 57.5 115 55.6693 115 53.4091V16.5909C115 14.3307 113.169 12.5 110.909 12.5H74.0909ZM102.032 23.2346C103.304 23.2346 104.173 24.0457 104.173 25.1523C104.173 26.2588 103.304 27.0699 102.032 27.0699C100.774 27.0699 99.8948 26.2588 99.8948 25.1523C99.8948 24.0457 100.774 23.2346 102.032 23.2346ZM85.9402 24.6768H89.9951L97.1662 44.8557H93.295L91.5891 39.6982H84.1664L82.4285 44.8557H78.7811L85.9402 24.6768ZM87.7699 28.5201L85.0053 36.8417H90.7502L88.0096 28.5201H87.7699ZM100.314 29.5588H103.766V44.8557H100.314V29.5588Z" fill="black"/>
<path d="M163.206 17.0176C163.03 17.002 162.852 17.0022 162.673 17.0211C161.956 17.0994 161.313 17.4526 160.861 18.0142C159.927 19.1743 160.113 20.8778 161.274 21.8111L164.245 24.2H148.966C147.477 24.2 146.266 25.4114 146.266 26.9C146.266 28.3886 147.477 29.6 148.966 29.6H155.658L142.841 39.9588C142.259 40.4295 141.896 41.0989 141.817 41.8432C141.738 42.5875 141.952 43.3192 142.423 43.9015C142.894 44.4838 143.563 44.8472 144.307 44.9264C145.052 45.0047 145.784 44.7906 146.366 44.3199L152.599 39.282C153.12 46.4289 159.768 52.1 167.866 52.1C176.302 52.1 183.166 45.9431 183.166 38.375C183.166 33.6986 180.547 29.3942 176.157 26.849L164.658 17.6029C164.236 17.2641 163.732 17.0643 163.206 17.0176ZM167.866 30.5C172.331 30.5 175.966 33.5276 175.966 37.25C175.966 40.9724 172.331 44 167.866 44C163.4 44 159.766 40.9724 159.766 37.25C159.766 33.5276 163.4 30.5 167.866 30.5ZM167.866 32.3C166.433 32.3 165.06 32.7741 164.047 33.618C163.035 34.4619 162.466 35.6065 162.466 36.8C162.466 37.9935 163.035 39.1381 164.047 39.982C165.06 40.8259 166.433 41.3 167.866 41.3C169.298 41.3 170.671 40.8259 171.684 39.982C172.697 39.1381 173.266 37.9935 173.266 36.8C173.266 35.6065 172.697 34.4619 171.684 33.618C170.671 32.7741 169.298 32.3 167.866 32.3Z" fill="black"/>
<defs>
<clipPath id="clip0_428_56">
<rect width="45" height="45" fill="white" transform="translate(210 12.5)"/>
</clipPath>
</defs>
</svg>
