<svg width="35" height="35" viewBox="0 0 35 35" fill="none" xmlns="http://www.w3.org/2000/svg">
<g clip-path="url(#clip0_425_46)">
<rect width="35" height="35" rx="5" fill="#F2F2F2"/>
<g clip-path="url(#clip1_425_46)">
<path d="M23.7392 19.4398C23.6885 19.4154 21.7931 18.482 21.4564 18.3608C21.319 18.3114 21.1717 18.2633 21.0151 18.2633C20.759 18.2633 20.5442 18.3907 20.3768 18.6413C20.1873 18.9227 19.6143 19.5929 19.4372 19.7927C19.4141 19.8191 19.3826 19.8506 19.3638 19.8506C19.3469 19.8506 19.0534 19.7297 18.9647 19.6913C16.9315 18.808 15.388 16.6841 15.1765 16.326C15.1462 16.2746 15.1449 16.2512 15.1446 16.2512C15.1521 16.2239 15.2203 16.1553 15.2558 16.1199C15.3591 16.0179 15.4709 15.883 15.5791 15.753C15.6305 15.6912 15.6818 15.6295 15.7322 15.5713C15.8892 15.3887 15.9591 15.247 16.0403 15.0825L16.0829 14.997C16.2808 14.6038 16.1118 14.2723 16.0572 14.165C16.0124 14.0753 15.2119 12.1439 15.1271 11.9407C14.9223 11.451 14.6519 11.2231 14.2762 11.2231C14.2414 11.2231 14.2762 11.2231 14.13 11.2293C13.9519 11.2368 12.9824 11.3645 12.5537 11.6346C12.099 11.9212 11.3301 12.8348 11.3301 14.4413C11.3301 15.8872 12.2476 17.2525 12.6418 17.7719C12.6515 17.7849 12.6694 17.8115 12.6957 17.8496C14.2044 20.0531 16.0855 21.6859 17.9919 22.4477C19.8275 23.1809 20.6969 23.2657 21.1909 23.2657C21.3986 23.2657 21.5647 23.2494 21.7116 23.2348L21.8045 23.226C22.4386 23.1698 23.8322 22.4477 24.1491 21.5669C24.3987 20.873 24.4646 20.1151 24.2986 19.8399C24.1835 19.653 23.9875 19.5591 23.7392 19.4398Z" fill="black"/>
<path d="M17.7308 4.5C10.6893 4.5 4.96056 10.1859 4.96056 17.1743C4.96056 19.4347 5.56538 21.6473 6.71133 23.584L4.51791 30.0541C4.47696 30.1747 4.50751 30.3082 4.59656 30.3989C4.66091 30.4646 4.74833 30.5 4.83771 30.5C4.87183 30.5 4.90628 30.4948 4.94008 30.4841L11.6864 28.3404C13.5328 29.3267 15.6193 29.8474 17.7308 29.8474C24.7716 29.8474 30.5 24.1625 30.5 17.1743C30.5 10.1859 24.7719 4.5 17.7308 4.5ZM17.7308 27.2074C15.7437 27.2074 13.8191 26.6338 12.1648 25.548C12.1093 25.5116 12.0446 25.4927 11.9796 25.4927C11.9451 25.4927 11.9107 25.4979 11.8772 25.5086L8.49753 26.5828L9.58856 23.364C9.62398 23.2596 9.60611 23.1449 9.54111 23.0562C8.28141 21.3347 7.61548 19.3008 7.61548 17.1743C7.61548 11.6415 12.1531 7.13998 17.7308 7.13998C23.3075 7.13998 27.8448 11.6412 27.8448 17.1743C27.8448 22.7065 23.3078 27.2074 17.7308 27.2074Z" fill="black"/>
</g>
</g>
<defs>
<clipPath id="clip0_425_46">
<rect width="35" height="35" fill="white"/>
</clipPath>
<clipPath id="clip1_425_46">
<rect width="26" height="26" fill="white" transform="translate(4.5 4.5)"/>
</clipPath>
</defs>
</svg>
